<?xml version="1.0" encoding="utf-8"?>
<!-- Generator: Adobe Illustrator 20.0.0, SVG Export Plug-In . SVG Version: 6.00 Build 0)  -->
<svg version="1.1" id="icon" xmlns="http://www.w3.org/2000/svg" xmlns:xlink="http://www.w3.org/1999/xlink" x="0px" y="0px"
	 viewBox="0 0 107.5 111.8" style="enable-background:new 0 0 107.5 111.8;" xml:space="preserve">
<style type="text/css">
	.st0{fill:none;stroke:#FFFFFF;stroke-width:2;stroke-linecap:square;stroke-miterlimit:10;}
	.st1{opacity:0.8;fill:none;stroke:#FFFFFF;stroke-width:2;stroke-miterlimit:10;}
	.st2{opacity:0.6;fill:none;stroke:#FFFFFF;stroke-width:2;stroke-miterlimit:10;}
	.st3{fill:#FFFFFF;}
	.st4{fill:none;stroke:#FFFFFF;stroke-width:0.75;stroke-miterlimit:10;}
</style>
<line class="st0" x1="21.3" y1="28.4" x2="69.3" y2="28.4"/>
<line class="st0" x1="21.3" y1="92.4" x2="69.3" y2="92.4"/>
<line class="st0" x1="69.3" y1="28.4" x2="69.3" y2="92.4"/>
<g>
	<polyline class="st1" points="29.9,28.1 29.9,19.8 45.9,19.8 77.9,19.8 77.9,83.8 69.8,83.8 	"/>
	<line class="st1" x1="45.9" y1="20.8" x2="45.9" y2="27.8"/>
	<line class="st1" x1="61.9" y1="20.8" x2="61.9" y2="27.8"/>
</g>
<line class="st1" x1="76.9" y1="35.8" x2="69.8" y2="35.8"/>
<line class="st1" x1="76.9" y1="51.8" x2="70" y2="51.8"/>
<line class="st1" x1="76.9" y1="67.8" x2="69.8" y2="67.8"/>
<g>
	<polyline class="st2" points="38.5,18.8 38.5,11.1 54.5,11.1 86.5,11.1 86.5,75.1 78.9,75.1 	"/>
	<line class="st2" x1="53.9" y1="12" x2="53.9" y2="18.8"/>
	<line class="st2" x1="69.9" y1="12" x2="69.9" y2="18.8"/>
</g>
<line class="st2" x1="85.5" y1="27.1" x2="78.9" y2="27.1"/>
<line class="st2" x1="85.5" y1="43.1" x2="78.9" y2="43.1"/>
<line class="st2" x1="85.5" y1="59.1" x2="78.9" y2="59.1"/>
<g>
	<circle class="st3" cx="37.3" cy="52.4" r="5"/>
	<circle class="st3" cx="53.3" cy="36.5" r="5"/>
	<circle class="st3" cx="69.2" cy="68.8" r="5"/>
	<rect x="21.3" y="28.4" class="st4" width="48" height="64"/>
	<line class="st0" x1="21.3" y1="76.4" x2="69.3" y2="76.4"/>
	<line class="st0" x1="21.3" y1="60.4" x2="69.3" y2="60.4"/>
	<line class="st0" x1="21.8" y1="44.4" x2="68.3" y2="44.4"/>
	<line class="st0" x1="21.3" y1="28.4" x2="21.3" y2="92.4"/>
	<line class="st0" x1="53.3" y1="28.4" x2="53.3" y2="92.4"/>
	<line class="st0" x1="37.3" y1="28.4" x2="37.3" y2="92.4"/>
	<circle class="st3" cx="20.9" cy="68.8" r="5"/>
</g>
</svg>
