<?xml version="1.0" encoding="utf-8"?>
<!-- Generator: Adobe Illustrator 15.0.2, SVG Export Plug-In . SVG Version: 6.00 Build 0)  -->
<!DOCTYPE svg PUBLIC "-//W3C//DTD SVG 1.1//EN" "http://www.w3.org/Graphics/SVG/1.1/DTD/svg11.dtd">
<svg version="1.1" xmlns="http://www.w3.org/2000/svg" xmlns:xlink="http://www.w3.org/1999/xlink" x="0px" y="0px"
	 width="76.416px" height="87.736px" viewBox="0 0 76.416 87.736" enable-background="new 0 0 76.416 87.736" xml:space="preserve">
<g id="background" display="none">
	<rect y="-2.83" display="inline" stroke="#FFFFFF" stroke-miterlimit="10" width="76.416" height="93.396"/>
</g>
<g id="icon">
	
		<line fill="none" stroke="#FFFFFF" stroke-width="2" stroke-linecap="square" stroke-miterlimit="10" x1="7.643" y1="21.126" x2="55.643" y2="21.126"/>
	
		<line fill="none" stroke="#FFFFFF" stroke-width="2" stroke-linecap="square" stroke-miterlimit="10" x1="7.643" y1="85.125" x2="55.643" y2="85.125"/>
	
		<line fill="none" stroke="#FFFFFF" stroke-width="2" stroke-linecap="square" stroke-miterlimit="10" x1="55.643" y1="21.126" x2="55.643" y2="85.125"/>
	<g>
		<polyline opacity="0.8" fill="none" stroke="#FFFFFF" stroke-width="2" stroke-miterlimit="10" points="16.285,20.739 
			16.285,12.472 32.281,12.472 64.285,12.472 64.285,76.472 56.152,76.472 		"/>
		
			<line opacity="0.8" fill="none" stroke="#FFFFFF" stroke-width="2" stroke-miterlimit="10" x1="32.281" y1="13.466" x2="32.281" y2="20.516"/>
		
			<line opacity="0.8" fill="none" stroke="#FFFFFF" stroke-width="2" stroke-miterlimit="10" x1="48.287" y1="13.466" x2="48.287" y2="20.516"/>
	</g>
	
		<line opacity="0.8" fill="none" stroke="#FFFFFF" stroke-width="2" stroke-miterlimit="10" x1="63.264" y1="28.473" x2="56.151" y2="28.473"/>
	
		<line opacity="0.8" fill="none" stroke="#FFFFFF" stroke-width="2" stroke-miterlimit="10" x1="63.264" y1="44.472" x2="56.331" y2="44.472"/>
	
		<line opacity="0.8" fill="none" stroke="#FFFFFF" stroke-width="2" stroke-miterlimit="10" x1="63.264" y1="60.471" x2="56.152" y2="60.471"/>
	<g>
		<polyline opacity="0.6" fill="none" stroke="#FFFFFF" stroke-width="2" stroke-miterlimit="10" points="24.886,11.466 
			24.886,3.745 40.882,3.745 72.886,3.745 72.886,67.745 65.327,67.745 		"/>
		
			<line opacity="0.6" fill="none" stroke="#FFFFFF" stroke-width="2" stroke-miterlimit="10" x1="40.264" y1="4.716" x2="40.264" y2="11.466"/>
		
			<line opacity="0.6" fill="none" stroke="#FFFFFF" stroke-width="2" stroke-miterlimit="10" x1="56.268" y1="4.716" x2="56.268" y2="11.466"/>
	</g>
	
		<line opacity="0.6" fill="none" stroke="#FFFFFF" stroke-width="2" stroke-miterlimit="10" x1="71.898" y1="19.745" x2="65.308" y2="19.745"/>
	
		<line opacity="0.6" fill="none" stroke="#FFFFFF" stroke-width="2" stroke-miterlimit="10" x1="71.898" y1="35.745" x2="65.308" y2="35.745"/>
	
		<line opacity="0.6" fill="none" stroke="#FFFFFF" stroke-width="2" stroke-miterlimit="10" x1="71.898" y1="51.745" x2="65.308" y2="51.745"/>
	<g>
		<circle fill="#FFFFFF" cx="23.703" cy="45.084" r="5"/>
		<circle fill="#FFFFFF" cx="39.698" cy="29.17" r="5"/>
		<circle fill="#FFFFFF" cx="55.587" cy="61.491" r="5"/>
		
			<rect x="7.643" y="21.126" fill="none" stroke="#FFFFFF" stroke-width="0.75" stroke-miterlimit="10" width="48" height="63.999"/>
		
			<line fill="none" stroke="#FFFFFF" stroke-width="2" stroke-linecap="square" stroke-miterlimit="10" x1="7.643" y1="69.125" x2="55.643" y2="69.125"/>
		
			<line fill="none" stroke="#FFFFFF" stroke-width="2" stroke-linecap="square" stroke-miterlimit="10" x1="7.643" y1="53.127" x2="55.643" y2="53.127"/>
		
			<line fill="none" stroke="#FFFFFF" stroke-width="2" stroke-linecap="square" stroke-miterlimit="10" x1="8.173" y1="37.127" x2="54.681" y2="37.127"/>
		
			<line fill="none" stroke="#FFFFFF" stroke-width="2" stroke-linecap="square" stroke-miterlimit="10" x1="7.643" y1="21.126" x2="7.643" y2="85.125"/>
		
			<line fill="none" stroke="#FFFFFF" stroke-width="2" stroke-linecap="square" stroke-miterlimit="10" x1="39.644" y1="21.126" x2="39.644" y2="85.125"/>
		
			<line fill="none" stroke="#FFFFFF" stroke-width="2" stroke-linecap="square" stroke-miterlimit="10" x1="23.638" y1="21.126" x2="23.638" y2="85.125"/>
		<circle fill="#FFFFFF" cx="7.264" cy="61.491" r="5"/>
	</g>
</g>
<g id="Layer_3">
</g>
<g id="Layer_4">
</g>
</svg>
