<?xml version="1.0" encoding="utf-8"?>
<!-- Generator: Adobe Illustrator 15.0.2, SVG Export Plug-In . SVG Version: 6.00 Build 0)  -->
<!DOCTYPE svg PUBLIC "-//W3C//DTD SVG 1.1//EN" "http://www.w3.org/Graphics/SVG/1.1/DTD/svg11.dtd">
<svg version="1.1" xmlns="http://www.w3.org/2000/svg" xmlns:xlink="http://www.w3.org/1999/xlink" x="0px" y="0px"
	 width="74.555px" height="86.792px" viewBox="0 0 74.555 86.792" enable-background="new 0 0 74.555 86.792" xml:space="preserve">
<g id="background" display="none">
	<rect display="inline" width="74.555" height="86.792"/>
</g>
<g id="icon">
	
		<line fill="none" stroke="#FFFFFF" stroke-width="2" stroke-linecap="square" stroke-miterlimit="10" x1="6.254" y1="20.183" x2="54.254" y2="20.183"/>
	
		<line fill="none" stroke="#FFFFFF" stroke-width="2" stroke-linecap="square" stroke-miterlimit="10" x1="6.254" y1="84.182" x2="54.254" y2="84.182"/>
	
		<line fill="none" stroke="#FFFFFF" stroke-width="2" stroke-linecap="square" stroke-miterlimit="10" x1="54.254" y1="20.183" x2="54.254" y2="84.182"/>
	<g>
		<polyline opacity="0.8" fill="none" stroke="#FFFFFF" stroke-width="2" stroke-miterlimit="10" points="14.896,19.795 
			14.896,11.529 30.892,11.529 62.896,11.529 62.896,75.529 54.763,75.529 		"/>
		
			<line opacity="0.8" fill="none" stroke="#FFFFFF" stroke-width="2" stroke-miterlimit="10" x1="30.892" y1="12.522" x2="30.892" y2="19.572"/>
		
			<line opacity="0.8" fill="none" stroke="#FFFFFF" stroke-width="2" stroke-miterlimit="10" x1="46.897" y1="12.522" x2="46.897" y2="19.572"/>
	</g>
	
		<line opacity="0.8" fill="none" stroke="#FFFFFF" stroke-width="2" stroke-miterlimit="10" x1="61.875" y1="27.53" x2="54.762" y2="27.53"/>
	
		<line opacity="0.8" fill="none" stroke="#FFFFFF" stroke-width="2" stroke-miterlimit="10" x1="61.875" y1="43.529" x2="54.941" y2="43.529"/>
	
		<line opacity="0.8" fill="none" stroke="#FFFFFF" stroke-width="2" stroke-miterlimit="10" x1="61.875" y1="59.528" x2="54.763" y2="59.528"/>
	<g>
		<polyline opacity="0.6" fill="none" stroke="#FFFFFF" stroke-width="2" stroke-miterlimit="10" points="23.497,10.522 
			23.497,2.801 39.493,2.801 71.497,2.801 71.497,66.801 63.938,66.801 		"/>
		
			<line opacity="0.6" fill="none" stroke="#FFFFFF" stroke-width="2" stroke-miterlimit="10" x1="38.875" y1="3.772" x2="38.875" y2="10.522"/>
		
			<line opacity="0.6" fill="none" stroke="#FFFFFF" stroke-width="2" stroke-miterlimit="10" x1="54.879" y1="3.772" x2="54.879" y2="10.522"/>
	</g>
	
		<line opacity="0.6" fill="none" stroke="#FFFFFF" stroke-width="2" stroke-miterlimit="10" x1="70.509" y1="18.802" x2="63.919" y2="18.802"/>
	
		<line opacity="0.6" fill="none" stroke="#FFFFFF" stroke-width="2" stroke-miterlimit="10" x1="70.509" y1="34.801" x2="63.919" y2="34.801"/>
	
		<line opacity="0.6" fill="none" stroke="#FFFFFF" stroke-width="2" stroke-miterlimit="10" x1="70.509" y1="50.801" x2="63.919" y2="50.801"/>
	<g>
		<circle fill="#FFFFFF" cx="22.313" cy="44.141" r="5"/>
		<circle fill="#FFFFFF" cx="38.309" cy="28.227" r="5"/>
		<circle fill="#FFFFFF" cx="54.198" cy="60.547" r="5"/>
		
			<rect x="6.254" y="20.183" fill="none" stroke="#FFFFFF" stroke-width="0.75" stroke-miterlimit="10" width="48" height="63.999"/>
		
			<line fill="none" stroke="#FFFFFF" stroke-width="2" stroke-linecap="square" stroke-miterlimit="10" x1="6.254" y1="68.182" x2="54.254" y2="68.182"/>
		
			<line fill="none" stroke="#FFFFFF" stroke-width="2" stroke-linecap="square" stroke-miterlimit="10" x1="6.254" y1="52.184" x2="54.254" y2="52.184"/>
		
			<line fill="none" stroke="#FFFFFF" stroke-width="2" stroke-linecap="square" stroke-miterlimit="10" x1="6.784" y1="36.184" x2="53.292" y2="36.184"/>
		
			<line fill="none" stroke="#FFFFFF" stroke-width="2" stroke-linecap="square" stroke-miterlimit="10" x1="6.254" y1="20.183" x2="6.254" y2="84.182"/>
		
			<line fill="none" stroke="#FFFFFF" stroke-width="2" stroke-linecap="square" stroke-miterlimit="10" x1="38.255" y1="20.183" x2="38.255" y2="84.182"/>
		
			<line fill="none" stroke="#FFFFFF" stroke-width="2" stroke-linecap="square" stroke-miterlimit="10" x1="22.249" y1="20.183" x2="22.249" y2="84.182"/>
		<circle fill="#FFFFFF" cx="5.875" cy="60.547" r="5"/>
	</g>
</g>
</svg>
