<?xml version="1.0" encoding="utf-8"?>
<!-- Generator: Adobe Illustrator 15.0.2, SVG Export Plug-In . SVG Version: 6.00 Build 0)  -->
<!DOCTYPE svg PUBLIC "-//W3C//DTD SVG 1.1//EN" "http://www.w3.org/Graphics/SVG/1.1/DTD/svg11.dtd">
<svg version="1.1" xmlns="http://www.w3.org/2000/svg" xmlns:xlink="http://www.w3.org/1999/xlink" x="0px" y="0px"
	 width="74.555px" height="86.792px" viewBox="0 0 74.555 86.792" enable-background="new 0 0 74.555 86.792" xml:space="preserve">
<g id="background" display="none">
	<rect display="inline" width="74.555" height="86.792"/>
</g>
<g id="icon" display="none">
	
		<line display="inline" fill="none" stroke="#FFFFFF" stroke-width="2" stroke-linecap="square" stroke-miterlimit="10" x1="6.254" y1="20.183" x2="54.254" y2="20.183"/>
	
		<line display="inline" fill="none" stroke="#FFFFFF" stroke-width="2" stroke-linecap="square" stroke-miterlimit="10" x1="6.254" y1="84.182" x2="54.254" y2="84.182"/>
	
		<line display="inline" fill="none" stroke="#FFFFFF" stroke-width="2" stroke-linecap="square" stroke-miterlimit="10" x1="54.254" y1="20.183" x2="54.254" y2="84.182"/>
	<g display="inline">
		<circle fill="#FFFFFF" cx="22.313" cy="44.141" r="5"/>
		<circle fill="#FFFFFF" cx="38.309" cy="28.227" r="5"/>
		<circle fill="#FFFFFF" cx="54.198" cy="60.547" r="5"/>
		
			<rect x="6.254" y="20.183" fill="none" stroke="#FFFFFF" stroke-width="0.75" stroke-miterlimit="10" width="48" height="63.999"/>
		
			<line fill="none" stroke="#FFFFFF" stroke-width="2" stroke-linecap="square" stroke-miterlimit="10" x1="6.254" y1="68.182" x2="54.254" y2="68.182"/>
		
			<line fill="none" stroke="#FFFFFF" stroke-width="2" stroke-linecap="square" stroke-miterlimit="10" x1="6.254" y1="52.184" x2="54.254" y2="52.184"/>
		
			<line fill="none" stroke="#FFFFFF" stroke-width="2" stroke-linecap="square" stroke-miterlimit="10" x1="6.784" y1="36.184" x2="53.292" y2="36.184"/>
		
			<line fill="none" stroke="#FFFFFF" stroke-width="2" stroke-linecap="square" stroke-miterlimit="10" x1="6.254" y1="20.183" x2="6.254" y2="84.182"/>
		
			<line fill="none" stroke="#FFFFFF" stroke-width="2" stroke-linecap="square" stroke-miterlimit="10" x1="38.255" y1="20.183" x2="38.255" y2="84.182"/>
		
			<line fill="none" stroke="#FFFFFF" stroke-width="2" stroke-linecap="square" stroke-miterlimit="10" x1="22.249" y1="20.183" x2="22.249" y2="84.182"/>
		<circle fill="#FFFFFF" cx="5.875" cy="60.547" r="5"/>
	</g>
</g>
<g id="Layer_3" display="none">
	<g display="inline">
		<g>
			<polyline opacity="0.8" fill="none" stroke="#FFFFFF" stroke-width="2" stroke-miterlimit="10" points="14.907,19.772 
				14.907,11.505 30.903,11.505 62.907,11.505 62.907,75.505 54.774,75.505 			"/>
			
				<line opacity="0.8" fill="none" stroke="#FFFFFF" stroke-width="2" stroke-miterlimit="10" x1="30.903" y1="12.499" x2="30.903" y2="19.549"/>
			
				<line opacity="0.8" fill="none" stroke="#FFFFFF" stroke-width="2" stroke-miterlimit="10" x1="46.909" y1="12.499" x2="46.909" y2="19.549"/>
		</g>
		
			<line opacity="0.8" fill="none" stroke="#FFFFFF" stroke-width="2" stroke-miterlimit="10" x1="61.887" y1="27.506" x2="54.773" y2="27.506"/>
		
			<line opacity="0.8" fill="none" stroke="#FFFFFF" stroke-width="2" stroke-miterlimit="10" x1="61.887" y1="43.505" x2="54.953" y2="43.505"/>
		
			<line opacity="0.8" fill="none" stroke="#FFFFFF" stroke-width="2" stroke-miterlimit="10" x1="61.887" y1="59.504" x2="54.774" y2="59.504"/>
		<g>
			<polyline opacity="0.6" fill="none" stroke="#FFFFFF" stroke-width="2" stroke-miterlimit="10" points="23.509,10.499 
				23.509,2.778 39.505,2.778 71.509,2.778 71.509,66.778 63.949,66.778 			"/>
			
				<line opacity="0.6" fill="none" stroke="#FFFFFF" stroke-width="2" stroke-miterlimit="10" x1="38.887" y1="3.749" x2="38.887" y2="10.499"/>
			
				<line opacity="0.6" fill="none" stroke="#FFFFFF" stroke-width="2" stroke-miterlimit="10" x1="54.891" y1="3.749" x2="54.891" y2="10.499"/>
		</g>
		
			<line opacity="0.6" fill="none" stroke="#FFFFFF" stroke-width="2" stroke-miterlimit="10" x1="70.521" y1="18.778" x2="63.931" y2="18.778"/>
		
			<line opacity="0.6" fill="none" stroke="#FFFFFF" stroke-width="2" stroke-miterlimit="10" x1="70.521" y1="34.778" x2="63.931" y2="34.778"/>
		
			<line opacity="0.6" fill="none" stroke="#FFFFFF" stroke-width="2" stroke-miterlimit="10" x1="70.521" y1="50.778" x2="63.931" y2="50.778"/>
	</g>
</g>
<g id="Layer_5" display="none">
	<rect x="19.593" y="31.027" display="inline" fill="#9DCB3B" width="32" height="31.999"/>
</g>
<g id="Layer_4">
	<polygon points="51.594,48.29 37.368,63 22.63,48.831 36.852,34.122 	"/>
	<polygon points="31.409,39.753 28.565,42.691 25.622,39.861 28.463,36.922 	"/>
	<polygon points="29.464,35.882 24.617,40.898 19.593,36.068 24.44,31.054 	"/>
	<polygon points="27.095,31.871 26.219,32.776 25.312,31.906 26.187,31 	"/>
	<polygon points="29.171,33.866 28.293,34.771 27.387,33.9 28.262,32.994 	"/>
	<polygon points="21.385,37.779 20.509,38.684 19.601,37.812 20.476,36.907 	"/>
	<polygon points="23.398,39.714 22.524,40.62 21.614,39.747 22.49,38.843 	"/>
	<path fill="#9DCB3B" d="M34.955,50.308c-1.237-1.187-1.272-3.151-0.078-4.39c1.193-1.23,3.159-1.268,4.399-0.077
		c1.237,1.187,1.27,3.152,0.079,4.387C38.162,51.46,36.193,51.5,34.955,50.308z"/>
</g>
</svg>
